<svg xmlns="http://www.w3.org/2000/svg" viewBox="0 0 1070.51 803.26"><defs><style>.cls-1{fill:none;stroke:#000;stroke-linecap:round;stroke-linejoin:round;stroke-width:38px;}</style></defs><g id="Layer_2" data-name="Layer 2"><g id="Layer_1-2" data-name="Layer 1"><path d="M530.46,682.74c183.39,0,332.06-148.67,332.06-332.07S713.85,18.61,530.46,18.61,198.4,167.28,198.4,350.67,347.07,682.74,530.46,682.74Zm0-619.86c158.94,0,287.79,128.85,287.79,287.79S689.4,638.46,530.46,638.46,242.67,509.61,242.67,350.67,371.52,62.88,530.46,62.88Z"/><path d="M694.72,350.67A164.25,164.25,0,0,1,414.46,466.89a22.14,22.14,0,0,0-31.22,31.22c81.43,81.3,213.35,81.2,294.66-.22s81.2-213.35-.23-294.66a22.14,22.14,0,0,0-31.21,31.22A163.18,163.18,0,0,1,694.72,350.67ZM344.06,372.81a22.14,22.14,0,0,0,22.14-22.14,164.48,164.48,0,0,1,164.26-164,22.14,22.14,0,1,0,0-44.27c-115,.12-208.29,93.28-208.54,208.31A22.14,22.14,0,0,0,344.06,372.81Z"/><path class="cls-1" d="M1025.06,400.64,916.32,415.71S884.46,134.94,972.18,19l79.33,572.46"/><line class="cls-1" x1="111.85" y1="64.61" x2="88.21" y2="192.96"/><line class="cls-1" x1="182.14" y1="79.2" x2="95.91" y2="558.58"/><path class="cls-1" d="M182.28,78.47l-17.73,96.22A73.37,73.37,0,1,1,20.23,148.1L38,51.88"/><path d="M294,791.75V727.69h9l20.53,32.41A179.94,179.94,0,0,1,335,780.92l.19-.1c-.76-8.55-1-16.34-1-26.32V727.69h7.8v64.06h-8.37l-20.34-32.5a204.31,204.31,0,0,1-12-21.39l-.29.1c.48,8.08.67,15.78.67,26.42v27.37Z"/><path d="M397.87,768.37c0,17-11.79,24.43-22.91,24.43-12.45,0-22-9.12-22-23.67,0-15.39,10.08-24.42,22.81-24.42C388.93,744.71,397.87,754.31,397.87,768.37Zm-36.5.48c0,10.07,5.8,17.68,14,17.68,8,0,14-7.51,14-17.87,0-7.8-3.89-17.68-13.78-17.68S361.37,760.1,361.37,768.85Z"/><path d="M418.5,732.54v13.21h12v6.37h-12v24.81c0,5.7,1.61,8.93,6.27,8.93a18.48,18.48,0,0,0,4.85-.57l.38,6.27a20.4,20.4,0,0,1-7.42,1.15c-3.9,0-7-1.24-9-3.52-2.37-2.47-3.23-6.56-3.23-12V752.12h-7.13v-6.37h7.13v-11Z"/><path d="M460.31,727.69h34.51v6.94H468.58v21.29h24.24v6.85H468.58v29h-8.27Z"/><path d="M545,768.37c0,17-11.78,24.43-22.9,24.43-12.45,0-22.05-9.12-22.05-23.67,0-15.39,10.07-24.42,22.81-24.42C536.07,744.71,545,754.31,545,768.37Zm-36.49.48c0,10.07,5.79,17.68,14,17.68,8,0,14-7.51,14-17.87,0-7.8-3.9-17.68-13.78-17.68S508.51,760.1,508.51,768.85Z"/><path d="M594.05,779.21c0,4.75.09,8.93.38,12.54H587l-.47-7.5h-.19a17.34,17.34,0,0,1-15.21,8.55c-7.22,0-15.87-4-15.87-20.15v-26.9h8.36v25.47c0,8.75,2.66,14.64,10.27,14.64A11.76,11.76,0,0,0,585.68,774V745.75h8.37Z"/><path d="M607.92,758.2c0-4.75-.09-8.65-.38-12.45H615l.47,7.61h.19a16.91,16.91,0,0,1,15.21-8.65c6.37,0,16.25,3.8,16.25,19.58v27.46h-8.36V765.24c0-7.42-2.76-13.59-10.65-13.59a11.87,11.87,0,0,0-11.21,8.55,12.05,12.05,0,0,0-.57,3.9v27.65h-8.37Z"/><path d="M700.4,724.27v55.6c0,4.09.1,8.75.38,11.88h-7.51l-.38-8h-.18c-2.57,5.13-8.18,9-15.69,9-11.12,0-19.67-9.41-19.67-23.38-.1-15.3,9.41-24.71,20.62-24.71,7,0,11.79,3.32,13.88,7H692V724.27ZM692,764.48a15,15,0,0,0-.38-3.52,12.31,12.31,0,0,0-12.07-9.7c-8.65,0-13.78,7.61-13.78,17.78,0,9.31,4.56,17,13.59,17a12.56,12.56,0,0,0,12.26-10,14.76,14.76,0,0,0,.38-3.61Z"/><path d="M732.43,753.36a5.62,5.62,0,0,1,5.71-6c3.32,0,5.51,2.47,5.6,6a5.66,5.66,0,1,1-11.31,0Zm0,33.55a5.62,5.62,0,0,1,5.71-6c3.32,0,5.51,2.47,5.6,6a5.66,5.66,0,1,1-11.31,0Z"/><path d="M772.26,725.79c-6.94,9.32-12,21.67-12,38.88,0,16.91,5.23,29.08,12,38.59H765.7c-6-7.89-12.45-20.06-12.45-38.59.09-18.73,6.46-30.89,12.45-38.88Z"/></g></g></svg>