<svg xmlns="http://www.w3.org/2000/svg" viewBox="0 0 1116.04 841.72"><defs><style>.cls-1{fill:none;stroke:#000;stroke-linecap:round;stroke-miterlimit:10;stroke-width:9px;}</style></defs><g id="Layer_2" data-name="Layer 2"><g id="Layer_1-2" data-name="Layer 1"><path d="M1049.55,21A140.24,140.24,0,0,0,839.34,172.53a139.15,139.15,0,0,0,46.88,75.68l-18.78,31a25.87,25.87,0,0,0-24.2,12.17L814.45,338H324l-18.52-58.22-44.36,28a2.92,2.92,0,0,1-3.11-4.94L303.71,274l-3.36-5.48a43,43,0,0,0-22-18.31A41.52,41.52,0,0,0,259.71,248l2.35-21a15.93,15.93,0,0,0-14-17.59h0a15.9,15.9,0,0,0-17.3,12.3,15.2,15.2,0,0,0-.29,1.75l-.29,2.58-3.77-6a15.92,15.92,0,1,0-26.92,17l3.77,6-2.45-.84a15.9,15.9,0,0,0-20.24,9.83,14.5,14.5,0,0,0-.49,1.71,15.89,15.89,0,0,0,10.33,18.54l20,6.93a42.46,42.46,0,0,0-5.18,12.71,40.45,40.45,0,0,0-.77,4.7c0,.15,0,.29-.05.43-1.28,13.46,4.18,27,15,37.08l6.16,5.77A19.37,19.37,0,0,0,219.7,344a19.08,19.08,0,0,0-5.33,14.18c2.35,53.94,18.21,99.08,47.13,134.15,23,27.87,54.71,50,94.48,65.8l-17.33,30,3.7,2.95c1.78,1.42,45.55,34.78,214.86,34.78S770.29,592.46,772.07,591l3.7-2.95-17.32-30c39.76-15.85,71.49-37.93,94.48-65.8,28.92-35.07,44.78-80.21,47.13-134.15a19.15,19.15,0,0,0-9-17.16L900,326.49a25.86,25.86,0,0,0,.49-26.36l19-31.38a138.61,138.61,0,0,0,56.1,11.85,141.12,141.12,0,0,0,32.49-3.81A139.33,139.33,0,0,0,1095.14,214C1135.79,148.23,1115.34,61.64,1049.55,21ZM217.32,298.28c0-.14,0-.26,0-.34a28.45,28.45,0,0,1,.53-3.26,31,31,0,0,1,7.82-14.34L232.6,273l-38-13.13a2.91,2.91,0,0,1-1.89-3.39,2.34,2.34,0,0,1,.09-.33,2.93,2.93,0,0,1,1.48-1.67,3,3,0,0,1,2.23-.13l37.48,13L210.44,230a2.92,2.92,0,0,1,4.94-3.11l23.55,37.3,4.42-39.41c0-.11,0-.21.05-.32a2.92,2.92,0,0,1,5.75,1l-4.48,39.94,9.57-3.08a30.16,30.16,0,0,1,19.71.11,28.89,28.89,0,0,1,11.45,7.76l-34.34,21.68a15.92,15.92,0,1,0,17,26.92l30.13-19L310.35,338h-21a15.92,15.92,0,0,0-24.18-10.78L248.14,338h-5.5l-14.4-13.48C220.44,317.23,216.46,307.66,217.32,298.28ZM272.57,338a2.86,2.86,0,0,1,1.79-.16,3,3,0,0,1,.49.16Zm488.67,246.9c-13.7,7.56-65.85,29.91-204,29.91-137.24,0-190.12-22.43-204-30L366.41,562c2.41.86,4.84,1.71,7.31,2.53,49.19,16.41,110.92,24.72,183.49,24.72s134.31-8.31,183.5-24.72l1.41-.48c.82-.11,1.64-.25,2.45-.44a27,27,0,0,0,3.7-1.18ZM886.78,351.55a8.22,8.22,0,0,1,2.29,6.1c-3.89,89.18-44.14,150-122.76,185.2q-6.54,2.92-13.42,5.6c-1,.4-2,.78-3,1.17-2.45.92-4.93,1.83-7.45,2.71-1.72.61-3.45,1.2-5.2,1.79l-.3.1q-7.15,2.37-14.68,4.52c-45.46,13-100.87,19.53-165,19.53-71.38,0-132-8.12-180-24.15-1.75-.59-3.48-1.18-5.2-1.79q-5.34-1.87-10.46-3.88c-87.48-34.12-132.08-96.69-136.18-190.8A8.26,8.26,0,0,1,233.6,349H880.83a8.1,8.1,0,0,1,4.44,1.31A8.38,8.38,0,0,1,886.78,351.55Zm4.7-30.31L881.11,338l-.28,0H826.21l25.53-41.33a15.83,15.83,0,0,1,21.81-5.16l12.79,7.9a15.85,15.85,0,0,1,5.14,21.82Zm2.14-29.08-16.24-10L894,254.62l16.24,10Zm193-83.4a130.24,130.24,0,0,1-179.25,42.35l0,0A130.25,130.25,0,0,1,945.89,13.54,131.07,131.07,0,0,1,976.07,10a129.34,129.34,0,0,1,68.22,19.5C1105.39,67.25,1124.38,147.67,1086.63,208.76Z"/><path d="M1084.45,114.65A111.58,111.58,0,1,0,1070.77,199,110.86,110.86,0,0,0,1084.45,114.65Zm-22.18,79.06a101.6,101.6,0,1,1,12.45-76.77A101,101,0,0,1,1062.27,193.71Z"/><path d="M1019.33,69.59a5,5,0,0,0-5.24,8.52,73.29,73.29,0,0,1,25.43,26.51,5,5,0,0,0,4.37,2.56,5.06,5.06,0,0,0,2.44-.64,5,5,0,0,0,1.91-6.81A83.38,83.38,0,0,0,1019.33,69.59Z"/><path class="cls-1" d="M376.9,105.37s-31.09,15.55,0,46.64,0,46.63,0,46.63-31.09,15.55,0,46.64,0,46.64,0,46.64"/><path class="cls-1" d="M448.9,105.37s-31.09,15.55,0,46.64,0,46.63,0,46.63-31.09,15.55,0,46.64,0,46.64,0,46.64"/><path class="cls-1" d="M520.9,105.37s-31.09,15.55,0,46.64,0,46.63,0,46.63-31.09,15.55,0,46.64,0,46.64,0,46.64"/><path class="cls-1" d="M592.9,105.37s-31.09,15.55,0,46.64,0,46.63,0,46.63-31.09,15.55,0,46.64,0,46.64,0,46.64"/><path class="cls-1" d="M664.9,105.37s-31.09,15.55,0,46.64,0,46.63,0,46.63-31.09,15.55,0,46.64,0,46.64,0,46.64"/><path class="cls-1" d="M737.53,105.37s-31.09,15.55,0,46.64,0,46.63,0,46.63-31.09,15.55,0,46.64,0,46.64,0,46.64"/><path d="M0,678.35H7.54v52.09h25v6.33H0Z"/><path d="M43.68,717.18c.17,10.32,6.76,14.56,14.39,14.56a27.63,27.63,0,0,0,11.61-2.16L71,735a34,34,0,0,1-14,2.6c-12.92,0-20.63-8.5-20.63-21.15s7.45-22.62,19.67-22.62c13.7,0,17.34,12,17.34,19.76a30.09,30.09,0,0,1-.26,3.55ZM66,711.72c.09-4.85-2-12.39-10.57-12.39-7.72,0-11.1,7.1-11.7,12.39Z"/><path d="M92,682.77v12.05H103v5.81H92v22.62c0,5.2,1.47,8.15,5.72,8.15a17.42,17.42,0,0,0,4.42-.52l.35,5.71a18.62,18.62,0,0,1-6.76,1c-3.56,0-6.42-1.13-8.24-3.21-2.16-2.26-2.94-6-2.94-10.92V700.63H78.08v-5.81h6.51V684.77Z"/><path d="M117.17,677.4l-1.47,20.8H111l-1.39-20.8Z"/><path d="M126.79,729a20,20,0,0,0,10,3c5.55,0,8.15-2.77,8.15-6.24,0-3.64-2.17-5.63-7.8-7.71-7.54-2.69-11.09-6.85-11.09-11.88,0-6.76,5.46-12.3,14.47-12.3a20.88,20.88,0,0,1,10.31,2.6L149,702a16.34,16.34,0,0,0-8.58-2.42c-4.51,0-7,2.6-7,5.72,0,3.46,2.51,5,8,7.1,7.28,2.78,11,6.42,11,12.66,0,7.36-5.72,12.57-15.69,12.57a24,24,0,0,1-11.79-2.86Z"/><path d="M210.42,735.21a28,28,0,0,1-12,2.43c-12.66,0-20.89-8.59-20.89-21.41S186.33,694,200,694a25.51,25.51,0,0,1,10.58,2.17L208.86,702a17.69,17.69,0,0,0-8.84-2c-9.62,0-14.82,7.11-14.82,15.86,0,9.71,6.24,15.69,14.56,15.69a21.66,21.66,0,0,0,9.36-2.08Z"/><path d="M256.79,715.45c0,15.51-10.75,22.27-20.89,22.27-11.35,0-20.1-8.32-20.1-21.58,0-14,9.18-22.27,20.8-22.27C248.64,693.87,256.79,702.62,256.79,715.45Zm-33.28.43c0,9.19,5.29,16.12,12.74,16.12,7.28,0,12.74-6.84,12.74-16.29,0-7.11-3.55-16.12-12.57-16.12S223.51,707.91,223.51,715.88Z"/><path d="M304.37,715.45c0,15.51-10.75,22.27-20.89,22.27-11.35,0-20.1-8.32-20.1-21.58,0-14,9.18-22.27,20.8-22.27C296.22,693.87,304.37,702.62,304.37,715.45Zm-33.28.43c0,9.19,5.29,16.12,12.74,16.12,7.28,0,12.74-6.84,12.74-16.29,0-7.11-3.55-16.12-12.57-16.12S271.09,707.91,271.09,715.88Z"/><path d="M321.53,714.06h.17c1-1.47,2.52-3.29,3.73-4.77l12.31-14.47h9.18l-16.2,17.25,18.46,24.7H339.9l-14.47-20.11-3.9,4.34v15.77H314V675.23h7.54Z"/><path d="M372,729a20,20,0,0,0,10,3c5.55,0,8.15-2.77,8.15-6.24,0-3.64-2.17-5.63-7.8-7.71-7.54-2.69-11.1-6.85-11.1-11.88,0-6.76,5.46-12.3,14.48-12.3a20.91,20.91,0,0,1,10.31,2.6L394.15,702a16.31,16.31,0,0,0-8.58-2.42c-4.5,0-7,2.6-7,5.72,0,3.46,2.52,5,8,7.1,7.28,2.78,11,6.42,11,12.66,0,7.36-5.72,12.57-15.68,12.57a24,24,0,0,1-11.79-2.86Z"/><path d="M445.29,715.45c0,15.51-10.75,22.27-20.89,22.27-11.35,0-20.11-8.32-20.11-21.58,0-14,9.19-22.27,20.8-22.27C437.14,693.87,445.29,702.62,445.29,715.45Zm-33.28.43c0,9.19,5.28,16.12,12.74,16.12,7.28,0,12.74-6.84,12.74-16.29,0-7.11-3.56-16.12-12.57-16.12S412,707.91,412,715.88Z"/><path d="M454.91,706.17c0-4.33-.09-7.88-.35-11.35h6.67l.35,6.76h.26c2.34-4,6.24-7.71,13.17-7.71a12.4,12.4,0,0,1,11.88,8.4h.17a17.32,17.32,0,0,1,4.68-5.46,14.36,14.36,0,0,1,9.28-2.94c5.54,0,13.78,3.64,13.78,18.2v24.7h-7.46V713c0-8.06-2.94-12.91-9.1-12.91-4.33,0-7.71,3.2-9,6.93a12.47,12.47,0,0,0-.61,3.81v25.92h-7.45V711.63c0-6.67-2.95-11.52-8.76-11.52-4.76,0-8.23,3.81-9.44,7.62a10.4,10.4,0,0,0-.61,3.73v25.31h-7.45Z"/><path d="M531.43,717.18c.18,10.32,6.76,14.56,14.39,14.56a27.63,27.63,0,0,0,11.61-2.16l1.3,5.46a34,34,0,0,1-14,2.6c-12.91,0-20.63-8.5-20.63-21.15s7.46-22.62,19.68-22.62c13.69,0,17.33,12,17.33,19.76a28.05,28.05,0,0,1-.26,3.55Zm22.36-5.46c.09-4.85-2-12.39-10.57-12.39-7.71,0-11.09,7.1-11.7,12.39Z"/><path d="M579.79,682.77v12.05h10.92v5.81H579.79v22.62c0,5.2,1.48,8.15,5.72,8.15a17.35,17.35,0,0,0,4.42-.52l.35,5.71a18.54,18.54,0,0,1-6.76,1c-3.55,0-6.41-1.13-8.23-3.21-2.17-2.26-2.95-6-2.95-10.92V700.63h-6.5v-5.81h6.5V684.77Z"/><path d="M599.29,675.23h7.63v26.18h.17a14.19,14.19,0,0,1,5.46-5.38,15.71,15.71,0,0,1,7.8-2.16c5.64,0,14.65,3.46,14.65,17.94v25h-7.63v-24.1c0-6.76-2.51-12.48-9.7-12.48a11,11,0,0,0-10.23,7.63,9.3,9.3,0,0,0-.52,3.64v25.31h-7.63Z"/><path d="M655.88,683a4.72,4.72,0,0,1-9.44,0,4.64,4.64,0,0,1,4.76-4.76A4.53,4.53,0,0,1,655.88,683Zm-8.49,53.74V694.82H655v41.95Z"/><path d="M667.67,706.17c0-4.33-.09-7.88-.35-11.35h6.76l.44,6.93h.17a15.43,15.43,0,0,1,13.87-7.88c5.8,0,14.82,3.46,14.82,17.85v25h-7.63V712.59c0-6.76-2.51-12.4-9.71-12.4a11.18,11.18,0,0,0-10.74,11.36v25.22h-7.63Z"/><path d="M751.91,694.82c-.17,3-.35,6.41-.35,11.53V730.7c0,9.62-1.9,15.52-6,19.16-4.07,3.81-10,5-15.25,5-5,0-10.57-1.21-14-3.46l1.9-5.81a23.72,23.72,0,0,0,12.31,3.29c7.8,0,13.52-4.07,13.52-14.64v-4.68h-.17c-2.34,3.9-6.85,7-13.35,7-10.4,0-17.85-8.83-17.85-20.45,0-14.21,9.27-22.27,18.89-22.27,7.28,0,11.27,3.81,13.09,7.28h.17l.35-6.33ZM744,711.37a10.73,10.73,0,0,0-.43-3.46,11,11,0,0,0-10.66-8.06c-7.28,0-12.48,6.15-12.48,15.86,0,8.23,4.16,15.08,12.39,15.08a11.16,11.16,0,0,0,10.58-7.8,13.34,13.34,0,0,0,.6-4.07Z"/><path d="M805.82,736.77l-.61-5.29H805a15.61,15.61,0,0,1-12.83,6.24c-8.49,0-12.83-6-12.83-12.05,0-10.14,9-15.68,25.23-15.6v-.86c0-3.47-1-9.71-9.54-9.71a20.88,20.88,0,0,0-10.92,3.12l-1.73-5a26,26,0,0,1,13.78-3.72c12.83,0,15.95,8.75,15.95,17.16v15.69a59.12,59.12,0,0,0,.69,10Zm-1.13-21.41c-8.32-.17-17.77,1.3-17.77,9.45,0,4.94,3.3,7.28,7.19,7.28a10.45,10.45,0,0,0,10.15-7,8,8,0,0,0,.43-2.43Z"/><path d="M824.36,706.17c0-4.33-.09-7.88-.34-11.35h6.67l.34,6.76h.27c2.34-4,6.24-7.71,13.17-7.71a12.39,12.39,0,0,1,11.87,8.4h.18a17.2,17.2,0,0,1,4.68-5.46,14.33,14.33,0,0,1,9.27-2.94c5.55,0,13.78,3.64,13.78,18.2v24.7H876.8V713c0-8.06-2.95-12.91-9.1-12.91-4.34,0-7.72,3.2-9,6.93a12.79,12.79,0,0,0-.6,3.81v25.92h-7.46V711.63c0-6.67-2.94-11.52-8.75-11.52-4.77,0-8.23,3.81-9.45,7.62a10.62,10.62,0,0,0-.61,3.73v25.31h-7.45Z"/><path d="M919.87,736.77l-.61-5.29H919a15.61,15.61,0,0,1-12.83,6.24c-8.49,0-12.82-6-12.82-12.05,0-10.14,9-15.68,25.22-15.6v-.86c0-3.47-1-9.71-9.54-9.71a20.88,20.88,0,0,0-10.92,3.12l-1.73-5a26.06,26.06,0,0,1,13.78-3.72c12.83,0,16,8.75,16,17.16v15.69a59.12,59.12,0,0,0,.69,10Zm-1.13-21.41c-8.32-.17-17.77,1.3-17.77,9.45,0,4.94,3.3,7.28,7.2,7.28a10.44,10.44,0,0,0,10.14-7,8,8,0,0,0,.43-2.43Z"/><path d="M933.65,732.35l19-24.7c1.82-2.26,3.55-4.25,5.46-6.5V701H935.38v-6.15h32l-.09,4.77-18.72,24.35c-1.73,2.34-3.46,4.42-5.37,6.59v.17h24.53v6.07H933.65Z"/><path d="M984,683a4.73,4.73,0,0,1-9.45,0,4.65,4.65,0,0,1,4.77-4.76A4.53,4.53,0,0,1,984,683Zm-8.49,53.74V694.82h7.62v41.95Z"/><path d="M995.79,706.17c0-4.33-.09-7.88-.35-11.35h6.76l.43,6.93h.18a15.43,15.43,0,0,1,13.86-7.88c5.81,0,14.82,3.46,14.82,17.85v25h-7.62V712.59c0-6.76-2.52-12.4-9.71-12.4a10.84,10.84,0,0,0-10.23,7.8,11.22,11.22,0,0,0-.52,3.56v25.22h-7.62Z"/><path d="M1080,694.82c-.18,3-.35,6.41-.35,11.53V730.7c0,9.62-1.91,15.52-6,19.16-4.07,3.81-10,5-15.25,5-5,0-10.58-1.21-14-3.46l1.91-5.81a23.69,23.69,0,0,0,12.31,3.29c7.8,0,13.52-4.07,13.52-14.64v-4.68h-.18c-2.34,3.9-6.84,7-13.34,7-10.4,0-17.86-8.83-17.86-20.45,0-14.21,9.28-22.27,18.9-22.27,7.28,0,11.26,3.81,13.08,7.28h.18l.34-6.33Zm-7.89,16.55a11.15,11.15,0,0,0-11.09-11.52c-7.28,0-12.48,6.15-12.48,15.86,0,8.23,4.16,15.08,12.39,15.08a11.14,11.14,0,0,0,10.57-7.8,13.05,13.05,0,0,0,.61-4.07Z"/><path d="M1089.21,732.26a5.12,5.12,0,0,1,5.2-5.46c3,0,5.11,2.25,5.11,5.46s-2,5.46-5.2,5.46C1091.29,737.72,1089.21,735.38,1089.21,732.26Z"/><path d="M342.76,831.58a26.72,26.72,0,0,0,13.52,3.82c7.71,0,12.22-4.08,12.22-10,0-5.46-3.12-8.58-11-11.62-9.53-3.38-15.42-8.32-15.42-16.55,0-9.1,7.54-15.86,18.89-15.86,6,0,10.31,1.39,12.91,2.86l-2.08,6.15a23.22,23.22,0,0,0-11.09-2.77c-8,0-11,4.77-11,8.75,0,5.46,3.56,8.15,11.62,11.27,9.88,3.81,14.9,8.58,14.9,17.16,0,9-6.67,16.82-20.45,16.82-5.63,0-11.79-1.65-14.91-3.73Z"/><path d="M391,821.18c.18,10.32,6.76,14.56,14.39,14.56A27.63,27.63,0,0,0,417,833.58l1.3,5.46a34,34,0,0,1-13.95,2.6c-12.91,0-20.63-8.5-20.63-21.15s7.46-22.62,19.68-22.62c13.69,0,17.33,12,17.33,19.76a28.05,28.05,0,0,1-.26,3.55Zm22.36-5.46c.09-4.85-2-12.39-10.57-12.39-7.71,0-11.09,7.1-11.7,12.39Z"/><path d="M453.43,840.77l-.6-5.29h-.26a15.61,15.61,0,0,1-12.83,6.24c-8.49,0-12.83-6-12.83-12.05,0-10.14,9-15.68,25.22-15.6v-.86c0-3.47-.95-9.71-9.53-9.71a20.88,20.88,0,0,0-10.92,3.12l-1.73-5a26,26,0,0,1,13.78-3.72c12.82,0,15.94,8.75,15.94,17.16v15.69a59.05,59.05,0,0,0,.7,10Zm-1.12-21.41c-8.32-.17-17.77,1.3-17.77,9.45,0,4.94,3.29,7.28,7.19,7.28a10.44,10.44,0,0,0,10.14-7,8,8,0,0,0,.44-2.43Z"/><path d="M472,811.91c0-4.94-.09-9.19-.35-13.09h6.68l.25,8.23h.35c1.91-5.63,6.5-9.18,11.62-9.18a7.94,7.94,0,0,1,2.16.26v7.19a11.65,11.65,0,0,0-2.6-.26c-5.37,0-9.18,4.07-10.22,9.79a20.84,20.84,0,0,0-.35,3.56v22.36H472Z"/><path d="M529.35,839.21a28,28,0,0,1-12,2.43c-12.66,0-20.89-8.59-20.89-21.41S505.26,798,519,798a25.51,25.51,0,0,1,10.58,2.17L527.79,806a17.69,17.69,0,0,0-8.84-2c-9.62,0-14.82,7.11-14.82,15.86,0,9.71,6.24,15.69,14.56,15.69a21.66,21.66,0,0,0,9.36-2.08Z"/><path d="M538.28,779.23h7.63v26.18h.17a14.12,14.12,0,0,1,5.46-5.38,15.68,15.68,0,0,1,7.8-2.16c5.63,0,14.65,3.46,14.65,17.94v25h-7.63v-24.1c0-6.76-2.51-12.48-9.71-12.48a11,11,0,0,0-10.22,7.63,9.12,9.12,0,0,0-.52,3.64v25.31h-7.63Z"/><path d="M604.75,810.17c0-4.33-.09-7.88-.35-11.35h6.76l.44,6.93h.17a15.43,15.43,0,0,1,13.87-7.88c5.8,0,14.82,3.46,14.82,17.85v25h-7.63V816.59c0-6.76-2.51-12.4-9.71-12.4a11.18,11.18,0,0,0-10.74,11.36v25.22h-7.63Z"/><path d="M690.81,819.45c0,15.51-10.75,22.27-20.89,22.27-11.35,0-20.1-8.32-20.1-21.58,0-14,9.18-22.27,20.8-22.27C682.66,797.87,690.81,806.62,690.81,819.45Zm-33.28.43c0,9.19,5.29,16.12,12.74,16.12,7.28,0,12.74-6.84,12.74-16.29,0-7.11-3.55-16.12-12.57-16.12S657.53,811.91,657.53,819.88Z"/><path d="M702.86,798.82l5.54,21.32c1.22,4.68,2.34,9,3.12,13.35h.26c1-4.25,2.34-8.76,3.73-13.26l6.85-21.41h6.41l6.5,21c1.56,5,2.77,9.45,3.73,13.7h.26a124.5,124.5,0,0,1,3.21-13.61l6-21.06H756l-13.52,41.95h-6.94l-6.41-20A138,138,0,0,1,725.39,807h-.17a123.34,123.34,0,0,1-3.82,13.87l-6.76,19.93h-6.93l-12.65-41.95Z"/><path d="M762.14,836.35a5.08,5.08,0,0,1,5.11-5.38c3.12,0,5.11,2.26,5.11,5.38a5,5,0,0,1-5.11,5.37A5.08,5.08,0,0,1,762.14,836.35ZM764.3,824l-1.21-41.6h8.32L770.2,824Z"/></g></g></svg>