<svg xmlns="http://www.w3.org/2000/svg" fill-rule="evenodd" stroke-linejoin="round" stroke-miterlimit="2" clip-rule="evenodd" viewBox="0 0 96 96" id="mushroom"><rect width="96" height="96" fill="none"></rect><path d="M44.282 42.938l3.415 33.454c.375 3.671-.822 7.329-3.295 10.067-2.473 2.739-5.991 4.302-9.681 4.302-.001 0-.002 0-.004 0-3.69 0-7.207-1.563-9.68-4.302-2.473-2.738-3.671-6.396-3.296-10.067 0 0 2.699-26.434 2.699-26.434.084-.823-.516-1.56-1.34-1.644-.823-.085-1.56.516-1.644 1.339l-2.699 26.435c-.461 4.515 1.012 9.014 4.053 12.382 3.042 3.368 7.369 5.291 11.907 5.291.002 0 .003 0 .004 0 4.539 0 8.865-1.923 11.907-5.291 3.042-3.368 4.515-7.867 4.054-12.382 0 0-3.416-33.455-3.416-33.455-.084-.823-.821-1.424-1.644-1.34-.824.084-1.424.821-1.34 1.645zM79.465 55.931l1.734 16.985c.216 2.114-.473 4.221-1.898 5.798-1.424 1.577-3.45 2.477-5.575 2.477l-.003 0c-2.125 0-4.151-.9-5.575-2.477-1.424-1.577-2.114-3.684-1.898-5.798 0 0 1.006-9.85 1.006-9.85.084-.824-.517-1.561-1.34-1.645-.824-.084-1.561.516-1.645 1.34l-1.006 9.85c-.302 2.959.663 5.907 2.657 8.114 1.993 2.207 4.827 3.466 7.801 3.466l.003 0c2.974 0 5.808-1.259 7.802-3.466 1.993-2.207 2.958-5.155 2.656-8.114 0 0-1.734-16.985-1.734-16.985-.084-.823-.821-1.424-1.645-1.339-.824.084-1.424.821-1.34 1.644z"></path><path d="M52.982,44.673c-5.276,-3.37 -11.545,-5.311 -18.263,-5.311c-6.716,0 -12.982,1.94 -18.27,5.288c-0.004,0.002 -0.007,0.004 -0.01,0.006c-2.517,1.621 -5.709,1.772 -8.368,0.397c-2.658,-1.376 -4.379,-4.068 -4.51,-7.059c-0.001,-0.024 -0.003,-0.049 -0.005,-0.073c-0.045,-0.484 -0.056,-0.972 -0.056,-1.463c-0,-7.742 2.824,-14.829 7.498,-20.287c0.538,-0.629 0.465,-1.577 -0.164,-2.115c-0.629,-0.539 -1.576,-0.465 -2.115,0.164c-5.123,5.983 -8.219,13.752 -8.219,22.238c-0,0.575 0.015,1.147 0.066,1.714c0.19,4.04 2.525,7.682 6.127,9.545c3.611,1.868 7.944,1.664 11.363,-0.534c4.823,-3.053 10.538,-4.821 16.663,-4.821c6.124,0 11.839,1.767 16.648,4.839c0.698,0.446 1.626,0.241 2.072,-0.457c0.446,-0.697 0.241,-1.626 -0.457,-2.071Zm-38.208,-32.225c5.411,-4.501 12.364,-7.209 19.945,-7.209c13.571,0 25.131,8.678 29.43,20.782c0.277,0.78 1.135,1.188 1.915,0.911c0.78,-0.277 1.189,-1.135 0.912,-1.915c-4.712,-13.267 -17.382,-22.778 -32.257,-22.778c-8.31,0 -15.933,2.969 -21.864,7.903c-0.636,0.529 -0.723,1.476 -0.193,2.112c0.529,0.637 1.476,0.724 2.112,0.194Z"></path><path d="M63.702,58.844c2.901,-1.836 6.339,-2.899 10.023,-2.899c3.681,-0 7.117,1.061 10.009,2.908c2.291,1.475 5.201,1.613 7.626,0.359c2.425,-1.255 3.995,-3.71 4.115,-6.437c0.016,-0.347 0.025,-0.702 0.025,-1.059c-0,-12.019 -9.757,-21.776 -21.775,-21.776c-12.019,0 -21.776,9.757 -21.776,21.776c0,0.37 0.01,0.737 0.043,1.103c0.131,2.699 1.694,5.134 4.103,6.38c2.421,1.252 5.326,1.114 7.617,-0.361l-0.01,0.006Zm-1.605,-2.534c-0.003,0.002 -0.006,0.004 -0.009,0.006c-1.388,0.894 -3.148,0.977 -4.614,0.219c-1.467,-0.759 -2.415,-2.244 -2.488,-3.893c-0.001,-0.024 -0.003,-0.049 -0.005,-0.073c-0.026,-0.282 -0.032,-0.567 -0.032,-0.853c0,-10.363 8.413,-18.776 18.776,-18.776c10.362,0 18.775,8.413 18.775,18.776c-0,0.308 -0.007,0.615 -0.022,0.92c-0,0.002 -0,0.004 -0,0.007c-0.073,1.654 -1.025,3.143 -2.496,3.904c-1.471,0.761 -3.236,0.677 -4.629,-0.219c-0.001,-0.001 -0.003,-0.002 -0.004,-0.003c-3.359,-2.145 -7.348,-3.38 -11.624,-3.38c-4.274,-0 -8.262,1.234 -11.628,3.365Z"></path></svg>