<svg xmlns="http://www.w3.org/2000/svg" width="99" height="99" fill="none" viewBox="0 0 99 99">
  <path fill="#000" d="M80.472 94.875c-5.616 0-2.064.825-2.064-4.125 0-4.001-5.596-10.436-6.732-11.694a2.065 2.065 0 0 0-3.056 0c-1.135 1.258-6.731 7.693-6.731 11.694a8.057 8.057 0 0 0 1.156 4.125h-6.442a8.057 8.057 0 0 0 1.156-4.125c0-4.001-5.595-10.436-6.731-11.694a2.065 2.065 0 0 0-3.056 0c-1.136 1.258-6.731 7.693-6.731 11.694a8.057 8.057 0 0 0 1.156 4.125h-6.442a8.058 8.058 0 0 0 1.156-4.125c0-4.001-5.596-10.436-6.731-11.694a2.065 2.065 0 0 0-3.056 0c-1.136 1.258-6.732 7.693-6.732 11.694 0 4.93 3.531 4.125-2.064 4.125a2.066 2.066 0 0 0-2.065 2.063A2.061 2.061 0 0 0 18.527 99h61.945a2.066 2.066 0 0 0 2.065-2.063 2.061 2.061 0 0 0-2.065-2.062ZM66.02 90.75c0-1.32 1.94-4.393 4.13-7.116 2.188 2.743 4.129 5.837 4.129 7.116a4.123 4.123 0 0 1-1.21 2.917 4.132 4.132 0 0 1-7.05-2.917Zm-20.649 0c0-1.32 1.941-4.393 4.13-7.116 2.189 2.743 4.13 5.837 4.13 7.116a4.123 4.123 0 0 1-1.21 2.917 4.132 4.132 0 0 1-7.05-2.917Zm-20.648 0c0-1.32 1.94-4.393 4.13-7.116 2.188 2.743 4.13 5.837 4.13 7.116a4.123 4.123 0 0 1-1.21 2.917 4.132 4.132 0 0 1-7.05-2.917Zm65.889-61.875H8.389a8.472 8.472 0 0 0-5.207 1.849 8.455 8.455 0 0 0-2.4 10.155 8.46 8.46 0 0 0 3.828 3.98l7.723 3.857v6.971c0 4.924 1.958 9.645 5.443 13.126a18.594 18.594 0 0 0 13.14 5.437h37.168c4.928 0 9.655-1.956 13.14-5.437a18.552 18.552 0 0 0 5.443-13.126v-6.97l7.722-3.858a8.46 8.46 0 0 0 3.83-3.98 8.447 8.447 0 0 0-2.401-10.155 8.471 8.471 0 0 0-5.207-1.849ZM6.469 41.25a4.313 4.313 0 0 1-2.46-4.92A4.31 4.31 0 0 1 8.39 33h3.944v11.096L6.469 41.25Zm76.068 14.438a14.43 14.43 0 0 1-4.233 10.208 14.462 14.462 0 0 1-10.22 4.229H30.916a14.46 14.46 0 0 1-10.22-4.229 14.43 14.43 0 0 1-4.233-10.209V33h66.074v22.688Zm9.994-14.438-5.864 2.846V33h3.944a4.32 4.32 0 0 1 4.38 3.33 4.306 4.306 0 0 1-2.46 4.92ZM48.178 17.655c-4.232 3.527-3.076 7.095-.743 7.095a2.066 2.066 0 0 0 2.065-2.063c0-1.897 4.13-2.495 4.13-6.868 0-5.507-6.98-5.28-2.809-8.745C54.993 3.61 53.92 0 51.566 0A2.066 2.066 0 0 0 49.5 2.063c0 1.897-4.13 2.495-4.13 6.868 0 4.372 4.13 4.99 4.13 6.888 0 .681-.33 1.011-1.322 1.836Zm-16.518 0c-4.233 3.527-3.077 7.095-.744 7.095a2.066 2.066 0 0 0 2.065-2.063c0-1.897 4.13-2.495 4.13-6.868 0-5.507-6.98-5.28-2.808-8.745C38.473 3.61 37.4 0 35.046 0a2.066 2.066 0 0 0-2.065 2.063c0 1.897-4.13 2.495-4.13 6.868 0 4.372 4.13 4.99 4.13 6.888 0 .681-.33 1.011-1.321 1.836Zm33.037 0c-4.233 3.527-3.076 7.095-.743 7.095a2.066 2.066 0 0 0 2.065-2.063c0-1.897 4.13-2.495 4.13-6.868 0-5.507-6.98-5.28-2.809-8.745C71.511 3.61 70.437 0 68.083 0a2.066 2.066 0 0 0-2.064 2.063c0 1.897-4.13 2.495-4.13 6.868 0 4.372 4.13 4.99 4.13 6.888 0 .681-.33 1.011-1.322 1.836Z"/>
</svg>
